<svg xmlns="http://www.w3.org/2000/svg" viewBox="0 0 2231.18 894.24"><defs><style>.cls-1{fill:#202020;}.cls-2{fill:#fff;}.cls-3{fill:none;stroke:#fff;stroke-miterlimit:10;stroke-width:32px;}</style></defs><g id="图层_1" data-name="图层 1"><circle class="cls-1" cx="351.57" cy="330.93" r="330.93"/></g><g id="图层_3" data-name="图层 3"><rect class="cls-1" x="351.57" y="546.04" width="843.59" height="115.83"/></g><g id="图层_2" data-name="图层 2"><circle class="cls-2" cx="351.57" cy="330.93" r="215.1"/></g><g id="图层_4" data-name="图层 4"><rect class="cls-2" x="20.64" y="388.84" width="661.86" height="33.09"/><rect class="cls-2" x="6355.46" y="7079.96" width="546.04" height="33.09" transform="translate(-6670.48 6901.5) rotate(-90)"/></g><g id="图层_5" data-name="图层 5"><rect class="cls-1" x="6285.28" y="7096.51" width="537.48" height="115.83" transform="translate(7505.99 -6223.09) rotate(90)"/></g><g id="图层_8" data-name="图层 8"><rect class="cls-2" x="351.57" y="512.94" width="537.48" height="33.09"/></g><g id="图层_9" data-name="图层 9"><circle class="cls-3" cx="351.57" cy="330.93" r="198.56"/><rect class="cls-1" x="82.83" y="273.02" width="483.84" height="115.83"/><rect class="cls-1" x="6448.61" y="6933.18" width="210.83" height="115.83" transform="translate(7342.66 -6386.42) rotate(90)"/><rect class="cls-1" x="6530.27" y="6847.24" width="105.41" height="57.91" transform="translate(7256.72 -6530.27) rotate(90)"/><rect class="cls-1" x="6491.97" y="7216.47" width="182.01" height="57.91" transform="translate(7625.95 -6161.04) rotate(90)"/></g><g id="图层_10" data-name="图层 10"><g id="图层_6" data-name="图层 6"><rect class="cls-2" x="6475.42" y="6960" width="546.04" height="273.02" transform="translate(7642.5 -6475.42) rotate(90)"/></g><g id="图层_7" data-name="图层 7"><rect class="cls-1" x="6618.21" y="7201.92" width="326.65" height="115.83" transform="translate(7838.92 -6345.19) rotate(90)"/><rect class="cls-1" x="605.95" y="378.43" width="190.29" height="115.83"/><rect class="cls-2" x="6748.44" y="7245.43" width="215.1" height="33.09" transform="translate(7915.52 -6417.51) rotate(90)"/><rect class="cls-1" x="442.57" y="215.1" width="273.02" height="115.83"/><rect class="cls-1" x="6814.49" y="7175.11" width="388.84" height="115.83" transform="translate(8039.47 -6599.38) rotate(90)"/><rect class="cls-2" x="6917.9" y="7187.52" width="330.93" height="33.09" transform="translate(8084.98 -6702.8) rotate(90)"/><rect class="cls-1" x="6818.48" y="7096.51" width="661.86" height="115.83" transform="translate(8101.38 -6818.48) rotate(90)"/><rect class="cls-1" x="7007.29" y="7088.83" width="637.73" height="115.83" transform="translate(9867.29 -4996.33) rotate(104.39)"/><rect class="cls-1" x="7120.87" y="7142.09" width="747.69" height="115.83" transform="translate(6403.15 -8672.77) rotate(75.61)"/><rect class="cls-1" x="1143.23" width="115.83" height="115.83"/><rect class="cls-1" x="1100.01" y="215.1" width="190.29" height="221.24"/><circle class="cls-1" cx="1543.52" cy="521.22" r="132.37"/><circle class="cls-1" cx="1543.52" cy="256.47" r="132.37"/><rect class="cls-2" x="1411.15" y="389.93" width="132.37" height="132.37"/><rect class="cls-2" x="1543.52" y="256.47" width="132.37" height="132.37"/><circle class="cls-1" cx="1808.26" cy="521.22" r="132.37"/><circle class="cls-1" cx="1808.26" cy="256.47" r="132.37"/><rect class="cls-2" x="1675.89" y="389.93" width="132.37" height="132.37"/><rect class="cls-2" x="1808.26" y="256.47" width="132.37" height="132.37"/><rect class="cls-2" y="661.86" width="2231.18" height="232.37"/></g></g></svg>