<svg xmlns="http://www.w3.org/2000/svg" viewBox="0 0 1236.09 510"><defs><style>.cls-1{fill:#202020;}.cls-2{fill:#fff;}.cls-3{fill:#0071bc;stroke:#0071bc;}.cls-3,.cls-4{stroke-miterlimit:10;}.cls-4{fill:none;stroke:#202020;stroke-width:10px;}</style></defs><g id="图层_1" data-name="图层 1"><rect class="cls-1" x="250" y="403.34" width="710" height="100"/><circle class="cls-1" cx="250" cy="253.34" r="250"/><circle class="cls-2" cx="250" cy="253.34" r="150"/><rect class="cls-2" x="6852.16" y="6978.79" width="100" height="299.99" transform="translate(480.96 -9738.75) rotate(45)"/><rect class="cls-2" x="6961.5" y="6934.07" width="285.38" height="545.48" transform="translate(7729.55 -6843.54) rotate(90)"/><rect class="cls-2" x="391.42" y="41.21" width="108.38" height="76.75"/></g><g id="图层_2" data-name="图层 2"><rect class="cls-1" x="469.76" y="17.96" width="416.42" height="100"/><rect class="cls-1" x="500" y="203.34" width="295.48" height="100"/><rect class="cls-3" x="314.67" y="118.15" width="480.81" height="85"/><rect class="cls-3" x="249.85" y="303.34" width="545.63" height="85"/></g><g id="图层_3" data-name="图层 3"><circle class="cls-1" cx="960" cy="253.34" r="250"/><circle class="cls-2" cx="960" cy="253.34" r="150"/></g><g id="图层_4" data-name="图层 4"><rect class="cls-2" x="7517.15" y="7149.11" width="450.78" height="150" transform="translate(8385.2 -7464.6) rotate(90)"/><rect class="cls-2" x="7521.48" y="7045.25" width="243.75" height="150" transform="translate(-9377.55 543.98) rotate(-45)"/><rect class="cls-2" x="961.93" y="178.34" width="274.16" height="150"/><rect class="cls-1" x="7547.52" y="7059.46" width="213.24" height="100" transform="translate(-9366.76 548.45) rotate(-45)"/><rect class="cls-1" x="961.93" y="203.34" width="274.16" height="100"/><rect class="cls-1" x="7518.79" y="7174.11" width="450.78" height="100" transform="translate(8386.83 -7466.23) rotate(90)"/><rect class="cls-1" x="1087.73" y="188.3" width="50" height="50"/><circle class="cls-4" cx="960" cy="253.34" r="150"/><circle class="cls-4" cx="959.05" cy="255" r="250"/></g></svg>