<svg xmlns="http://www.w3.org/2000/svg" viewBox="0 0 1236.09 510"><defs><style>.cls-1{fill:#202020;}.cls-2{fill:#0071bc;stroke:#0071bc;}.cls-2,.cls-3{stroke-miterlimit:10;}.cls-3{fill:none;stroke:#202020;stroke-width:10px;}</style></defs><g id="图层_2" data-name="图层 2"><polygon class="cls-1" points="600 203.34 500 303.34 795.48 303.34 795.48 203.34 600 203.34"/><polygon class="cls-1" points="569.76 17.96 469.76 117.96 469.76 117.96 886.18 117.96 886.18 17.96 569.76 17.96"/><polygon class="cls-2" points="314.33 118.15 229.33 203.15 795.48 203.15 795.48 118.15 314.33 118.15"/><polygon class="cls-2" points="129.14 303.34 44.14 388.34 795.48 388.34 795.48 303.34 129.14 303.34"/></g><g id="图层_1" data-name="图层 1"><path class="cls-1" d="M7031.47,7349.5h-200a150,150,0,1,1,64.67-285.38h0l73.19-73.19a248.84,248.84,0,0,0-137.86-41.43c-138.07,0-250,111.93-250,250s111.93,250,250,250h710v-100Z" transform="translate(-6581.45 -6946.16)"/></g><g id="图层_3" data-name="图层 3"><path class="cls-1" d="M7667.55,7280.77a150,150,0,1,1-70.26-220.53l74.26-74.26a248.85,248.85,0,0,0-130.1-36.48c-138.07,0-250,111.93-250,250s111.93,250,250,250a248.8,248.8,0,0,0,126.1-34.1Z" transform="translate(-6581.45 -6946.16)"/><circle class="cls-3" cx="960" cy="253.34" r="150"/><circle class="cls-3" cx="959.05" cy="255" r="250"/><polygon class="cls-1" points="1236.09 203.34 1212.73 203.34 1212.73 52.56 1112.73 52.56 1112.73 52.57 1112.72 52.56 961.93 203.34 961.93 303.34 1112.73 303.34 1112.73 503.34 1212.73 503.34 1212.73 303.34 1236.09 303.34 1236.09 203.34"/></g></svg>