<?xml version="1.0" standalone="no"?>
<!DOCTYPE svg PUBLIC "-//W3C//DTD SVG 20010904//EN"
 "http://www.w3.org/TR/2001/REC-SVG-20010904/DTD/svg10.dtd">
<svg version="1.0" xmlns="http://www.w3.org/2000/svg"
 width="10586.000000pt" height="3840.000000pt" viewBox="0 0 10586.000000 3840.000000"
 preserveAspectRatio="xMidYMid meet">

<g transform="translate(0.000000,3840.000000) scale(0.100000,-0.100000)"
fill="#000000" stroke="none">
<path d="M18735 38393 c-3717 -84 -7356 -1263 -10417 -3375 -3118 -2151 -5530
-5164 -6938 -8663 -748 -1860 -1201 -3846 -1334 -5855 -32 -472 -40 -734 -40
-1300 0 -970 53 -1755 180 -2665 68 -488 193 -1186 269 -1502 l5 -23 7270 0
7270 0 0 -1708 0 -1707 173 -92 c1058 -560 2247 -893 3472 -973 229 -15 325
-15 2653 -12 l2102 2 0 8680 0 8681 -2317 -4 c-2475 -4 -2398 -2 -2848 -52
-1072 -120 -2130 -445 -3062 -938 l-173 -92 0 -1692 0 -1693 -2875 0 -2875 0
14 33 c168 396 430 911 656 1287 476 791 995 1456 1644 2106 728 728 1500
1310 2406 1816 357 199 1019 515 1028 490 2 -6 53 10 124 40 924 382 1988 646
3018 748 453 45 389 44 2888 47 l2372 4 0 4209 0 4210 -2277 -2 c-1253 -1
-2327 -3 -2388 -5z"/>
<path d="M26620 38393 c-553 -61 -990 -459 -1097 -1000 -23 -119 -23 -347 0
-466 61 -308 232 -579 482 -763 137 -101 290 -171 475 -217 83 -20 109 -21
1038 -24 l952 -4 0 -244 0 -244 -957 -4 c-1046 -4 -986 0 -1171 -63 -405 -136
-713 -478 -815 -906 l-22 -93 0 -1660 0 -1660 22 -93 c114 -476 469 -831 945
-945 l93 -22 1645 0 c1540 0 1651 1 1733 18 503 102 885 484 984 984 23 119
23 347 0 466 -88 444 -400 799 -827 941 -196 65 -215 66 -1219 66 l-901 0 0
245 0 245 913 0 c550 0 940 4 982 10 518 74 925 447 1048 962 l22 93 0 1660 0
1660 -22 93 c-57 238 -168 438 -337 608 -168 167 -366 278 -603 336 l-88 22
-1620 2 c-891 0 -1636 -1 -1655 -3z"/>
<path d="M32670 38393 c-488 -54 -887 -368 -1048 -825 -49 -138 -66 -244 -66
-408 0 -164 17 -270 66 -408 144 -410 466 -695 908 -805 83 -20 109 -21 1038
-24 l952 -4 0 -244 0 -244 -947 -4 c-921 -3 -951 -4 -1038 -24 -500 -116 -864
-488 -962 -980 -23 -119 -23 -347 0 -466 98 -492 462 -864 962 -980 87 -20
117 -21 1038 -24 l947 -4 0 -244 0 -245 -901 0 c-1003 0 -1023 -1 -1218 -66
-428 -142 -740 -497 -828 -941 -11 -59 -17 -136 -17 -233 0 -97 6 -174 17
-233 99 -500 481 -882 984 -984 82 -17 193 -18 1733 -18 l1645 0 93 22 c482
115 843 481 948 963 18 82 19 198 19 3220 0 3022 -1 3138 -19 3220 -105 479
-462 843 -943 962 l-88 22 -1620 2 c-891 0 -1636 -1 -1655 -3z"/>
<path d="M58580 19200 l0 -19200 5726 0 5726 0 -6 27 c-3 16 -301 1891 -661
4168 -360 2277 -658 4155 -661 4173 l-6 32 -859 0 -859 0 0 1730 0 1730 1342
-2 1343 -3 907 -5725 c498 -3149 921 -5816 938 -5927 l33 -203 4198 0 4199 0
-5 22 c-2 13 -1024 6462 -2270 14333 -1246 7871 -2271 14340 -2277 14378 l-11
67 -4198 0 -4199 0 0 4800 0 4800 -4200 0 -4200 0 0 -19200z m9254 4210 c454
-2868 828 -5223 830 -5232 4 -17 -41 -18 -840 -18 l-844 0 1 5313 c1 4493 3
5300 15 5232 7 -44 384 -2427 838 -5295z"/>
<path d="M79945 28778 c5 -26 3225 -20361 3225 -20371 0 -4 -662 -7 -1471 -7
l-1471 0 6 -28 c3 -15 300 -1890 661 -4167 360 -2277 657 -4155 660 -4172 l6
-33 5526 0 5525 0 -6 32 c-8 44 -3556 22456 -3556 22463 0 3 644 5 1431 5
l1431 0 -6 28 c-3 15 -226 1422 -496 3127 -269 1705 -492 3110 -495 3123 l-5
22 -5485 0 -5485 0 5 -22z"/>
<path d="M93023 28753 c3 -27 729 -4610 1612 -10186 883 -5575 1605 -10139
1605 -10142 0 -3 -25 -5 -55 -5 -30 0 -55 -4 -55 -10 0 -7 -469 -11 -1373 -12
l-1373 -3 642 -4055 c353 -2230 652 -4119 665 -4198 l22 -142 5574 0 5573 0
-5 22 c-5 25 -3541 22357 -3551 22432 l-7 46 1782 0 1781 0 0 3150 0 3150
-6421 0 -6422 0 6 -47z"/>
<path d="M50180 25125 l0 -2765 -1690 0 -1690 0 0 2760 0 2760 -3150 0 -3150
0 0 -8680 0 -8680 3150 0 3150 0 0 2770 0 2770 1690 0 1690 0 0 -2765 0 -2765
3150 0 3150 0 0 8680 0 8680 -3150 0 -3150 0 0 -2765z"/>
<path d="M25500 24730 l0 -3150 1715 0 1715 0 0 -5530 0 -5530 3150 0 3150 0
0 5530 0 5530 1585 0 1585 0 0 3150 0 3150 -6450 0 -6450 0 0 -3150z"/>
<path d="M1060 12902 c0 -4 31 -93 69 -198 370 -1016 767 -1891 1267 -2796
2055 -3710 5311 -6663 9194 -8338 1731 -747 3563 -1235 5420 -1444 406 -46
707 -70 1320 -108 150 -9 4606 -13 19173 -15 l18977 -3 0 4200 0 4200 -16540
0 c-12067 0 -16540 3 -16540 11 0 8 -642 10 -2357 9 -2414 -3 -2419 -3 -2843
35 -1040 95 -2133 362 -3078 753 -66 28 -123 48 -125 45 -13 -12 -549 238
-827 386 -992 529 -1822 1142 -2606 1925 -399 399 -750 806 -1055 1222 l-91
124 -4679 0 c-2573 0 -4679 -4 -4679 -8z"/>
</g>
</svg>
