<svg xmlns="http://www.w3.org/2000/svg" viewBox="0 0 1175 505"><defs><style>.cls-1{fill:#202020;}.cls-2{fill:#0071bc;}.cls-3{fill:none;stroke:#202020;stroke-miterlimit:10;stroke-width:10px;}</style></defs><g id="C"><path class="cls-1" d="M6489.5,7349.5a150,150,0,0,1,0-300h79.29l58.57-58.57a248.87,248.87,0,0,0-137.86-41.43c-138.07,0-250,111.93-250,250s111.93,250,250,250a249.61,249.61,0,0,0,200-100Z" transform="translate(-6239.5 -6949.5)"/></g><g id="_23" data-name="23"><rect class="cls-2" x="329.29" y="100" width="470.71" height="100"/><rect class="cls-2" x="250" y="300" width="550" height="100"/><rect class="cls-1" x="500" y="200" width="300" height="100"/><rect class="cls-1" x="250" y="400" width="675" height="100"/><rect class="cls-1" x="500" y="50" width="425" height="50"/></g><g id="_0" data-name="0"><circle class="cls-3" cx="925" cy="275" r="125"/><path class="cls-1" d="M7289.5,7299.5h-25A125,125,0,1,1,7153.67,7100l87.18-87.17a224.58,224.58,0,0,0-76.35-13.3c-124.26,0-225,100.74-225,225s100.74,225,225,225a224,224,0,0,0,125-37.9Z" transform="translate(-6239.5 -6949.5)"/><circle class="cls-3" cx="925" cy="275" r="225"/><rect class="cls-1" x="1010.36" y="160.36" width="100" height="100"/></g><g id="图层_5" data-name="图层 5"><rect class="cls-1" x="7108.43" y="7059.86" width="282.84" height="100" transform="translate(-9143.49 259.35) rotate(-45)"/><rect class="cls-1" x="875" y="225" width="300" height="100"/><rect class="cls-1" x="7127" y="7162" width="475" height="100" transform="translate(8337 -7102) rotate(90)"/></g></svg>